<?xml version="1.0" encoding="utf-8"?>
<!-- Svg Vector Icons : http://www.onlinewebfonts.com/icon -->
<!DOCTYPE svg PUBLIC "-//W3C//DTD SVG 1.1//EN" "http://www.w3.org/Graphics/SVG/1.1/DTD/svg11.dtd">
<svg version="1.1" xmlns="http://www.w3.org/2000/svg" xmlns:xlink="http://www.w3.org/1999/xlink" x="0px" y="0px" viewBox="0 0 1000 1000" enable-background="new 0 0 1000 1000" xml:space="preserve">
<metadata> Svg Vector Icons : http://www.onlinewebfonts.com/icon </metadata>
<g><g transform="translate(0.000000,511.000000) scale(0.100000,-0.100000)"><path d="M4014,4984.6c-450.6-42.8-730-133.4-876-279.4c-93.1-93.1-123.3-231.6-68-324.7c57.9-103.2,923.8-1278.8,954.1-1296.4c32.7-20.1,1923.2-17.6,1955.9,2.5c27.7,15.1,898.7,1200.7,954,1296.4c52.9,90.6,22.7,224-70.5,319.7c-231.6,236.6-707.3,312.1-1913.1,307.1C4555.2,5007.2,4134.8,4997.2,4014,4984.6z M6201.5,4649.8c249.2-42.8,435.5-105.7,435.5-146c0-12.6-181.3-271.9-405.3-576.5l-405.3-551.3h-825.6h-825.7l-405.3,551.3c-224,304.6-405.3,563.9-405.3,576.5c0,62.9,334.8,146,742.6,181.3C4494.8,4720.3,5934.6,4695.1,6201.5,4649.8z"/><path d="M4129.8,2736.7c-108.2-47.8-563.9-488.3-898.7-871c-1034.6-1178.1-1752-2497.1-1971-3612.3c-68-337.3-60.4-863.4,10.1-1157.9c203.9-815.6,843.3-1389.5,1870.3-1668.9c556.3-153.6,1112.6-216.5,1860.3-216.5c2172.4,0,3443.6,657,3743.2,1943.3c57.9,254.2,57.9,785.4-2.5,1092.5C8565.2-837.9,8054.2,209.3,7294,1221.3C6825.8,1845.6,6063,2656.1,5866.7,2736.7C5745.8,2787,4245.6,2787,4129.8,2736.7z M6007.6,2225.7c304.6-287,725-767.8,1047.2-1195.7C8303.4-641.5,8779.1-2240,8305.9-3181.4c-297-584-858.4-951.5-1772.1-1155.4c-1316.6-294.5-3018.2-168.6-3937,294.5c-543.7,271.9-883.6,667.1-1024.5,1195.7c-37.8,148.5-50.3,271.9-50.3,521.1c0,586.5,156.1,1152.9,533.7,1913.1c445.6,901.2,1052.2,1742,1802.4,2499.6l354.9,357.5h780.4h780.4L6007.6,2225.7z"/><path d="M4975.6,1035c0-93.1-5-98.2-93.1-113.3c-422.9-70.5-684.7-269.4-813.1-606.7c-55.4-151-73-428-37.8-589c27.7-133.4,128.4-314.7,226.6-415.4c103.2-103.2,367.5-241.7,573.9-302.1l143.5-40.3v-682.2v-679.7l-68,17.6c-229.1,55.4-400.2,226.6-480.8,478.3c-30.2,90.6-55.4,186.3-55.4,214c0,57.9-5,57.9-181.3,25.2c-281.9-57.9-254.2-35.3-236.6-196.3c22.7-191.3,135.9-427.9,279.4-579c133.4-143.5,344.9-249.2,581.5-289.5l161.1-27.7v-208.9v-208.9h125.9h125.9v214v214h73c130.9,0,390.2,98.2,518.6,196.3c276.9,208.9,415.4,498.4,415.4,858.4c0,503.5-284.5,838.3-825.7,971.7l-181.3,42.8v614.2c0,405.3,10.1,614.2,25.2,614.2c52.9,0,214-80.6,271.9-133.4c75.5-70.5,146-206.4,168.7-327.2c17.6-90.6,20.1-93.1,110.8-78c50.3,7.5,148.5,22.7,216.5,32.7c120.8,15.1,125.9,20.2,118.3,88.1c-15.1,148.5-113.3,344.9-234.1,480.8c-141,151-307.1,241.7-531.2,289.5l-146,27.7v100.7v98.2h-125.9h-125.9V1035z M4975.6-22.3c0-445.6-7.5-579-30.2-579c-75.5,0-292,125.9-367.5,214c-108.2,120.8-130.9,183.8-130.9,367.5c0,168.7,37.8,274.4,135.9,390.2c73,90.6,249.2,186.3,337.3,186.3h55.4V-22.3z M5511.7-1210.4c176.2-95.6,266.8-229.1,287-430.4c35.2-339.8-181.2-654.5-500.9-735l-70.5-17.6v657v657l68-27.7C5333-1122.3,5431.2-1167.6,5511.7-1210.4z"/></g></g>
</svg>