<svg width="42" height="40" viewBox="0 0 42 40" fill="none" xmlns="http://www.w3.org/2000/svg">
<g clip-path="url(#clip0_98_334)">
<path d="M14.105 23.7775C14.2999 26.1625 16.2336 28.02 19.7008 28.24V30H21.2396V28.2275C24.8299 27.9825 26.9277 26.1125 26.9277 23.3975C26.9277 20.93 25.3223 19.6575 22.4526 18.9975L21.2396 18.7175V13.925C22.7783 14.095 23.7579 14.915 23.9939 16.05H26.6918C26.4969 13.7525 24.476 11.955 21.2396 11.76V10H19.7008V11.7975C16.6362 12.09 14.5461 13.8875 14.5461 16.43C14.5461 18.68 16.1002 20.11 18.6827 20.6975L19.7008 20.9425V26.0275C18.1236 25.795 17.0799 24.9525 16.8439 23.7775H14.105V23.7775ZM19.688 18.3625C18.1749 18.02 17.3543 17.3225 17.3543 16.2725C17.3543 15.0975 18.239 14.2175 19.7008 13.96V18.36H19.688V18.3625ZM21.4627 21.345C23.3014 21.76 24.1503 22.4325 24.1503 23.62C24.1503 24.975 23.0937 25.905 21.2396 26.075V21.295L21.4627 21.345V21.345Z" fill="#FCFCFC"/>
<path d="M20.5164 37.5C15.7552 37.5 11.1891 35.6563 7.82251 32.3744C4.45589 29.0925 2.56454 24.6413 2.56454 20C2.56454 15.3587 4.45589 10.9075 7.82251 7.62563C11.1891 4.34374 15.7552 2.5 20.5164 2.5C25.2775 2.5 29.8436 4.34374 33.2102 7.62563C36.5768 10.9075 38.4682 15.3587 38.4682 20C38.4682 24.6413 36.5768 29.0925 33.2102 32.3744C29.8436 35.6563 25.2775 37.5 20.5164 37.5ZM20.5164 40C25.9576 40 31.176 37.8929 35.0236 34.1421C38.8712 30.3914 41.0327 25.3043 41.0327 20C41.0327 14.6957 38.8712 9.60859 35.0236 5.85786C31.176 2.10714 25.9576 0 20.5164 0C15.0751 0 9.85666 2.10714 6.0091 5.85786C2.16154 9.60859 0 14.6957 0 20C0 25.3043 2.16154 30.3914 6.0091 34.1421C9.85666 37.8929 15.0751 40 20.5164 40V40Z" fill="#FCFCFC"/>
<path d="M20.5164 33.75C16.7755 33.75 13.1878 32.3013 10.5426 29.7227C7.89742 27.1441 6.41136 23.6467 6.41136 20C6.41136 16.3533 7.89742 12.8559 10.5426 10.2773C13.1878 7.69866 16.7755 6.25 20.5164 6.25C24.2572 6.25 27.8449 7.69866 30.4901 10.2773C33.1353 12.8559 34.6213 16.3533 34.6213 20C34.6213 23.6467 33.1353 27.1441 30.4901 29.7227C27.8449 32.3013 24.2572 33.75 20.5164 33.75ZM20.5164 35C22.537 35 24.5379 34.612 26.4048 33.8582C28.2717 33.1044 29.9679 31.9995 31.3968 30.6066C32.8256 29.2137 33.959 27.5601 34.7323 25.7403C35.5056 23.9204 35.9036 21.9698 35.9036 20C35.9036 18.0302 35.5056 16.0796 34.7323 14.2597C33.959 12.4399 32.8256 10.7863 31.3968 9.3934C29.9679 8.00052 28.2717 6.89563 26.4048 6.14181C24.5379 5.38799 22.537 5 20.5164 5C16.4354 5 12.5216 6.58035 9.63591 9.3934C6.75024 12.2064 5.12909 16.0218 5.12909 20C5.12909 23.9782 6.75024 27.7936 9.63591 30.6066C12.5216 33.4196 16.4354 35 20.5164 35V35Z" fill="#FCFCFC"/>
</g>
<defs>
<clipPath id="clip0_98_334">
<rect width="41.0327" height="40" fill="white"/>
</clipPath>
</defs>
</svg>
