<?xml version="1.0" encoding="utf-8"?>
<!-- Svg Vector Icons : http://www.onlinewebfonts.com/icon -->
<!DOCTYPE svg PUBLIC "-//W3C//DTD SVG 1.1//EN" "http://www.w3.org/Graphics/SVG/1.1/DTD/svg11.dtd">
<svg version="1.1" xmlns="http://www.w3.org/2000/svg" xmlns:xlink="http://www.w3.org/1999/xlink" x="0px" y="0px" viewBox="0 0 1000 1000" enable-background="new 0 0 1000 1000" xml:space="preserve">
<metadata> Svg Vector Icons : http://www.onlinewebfonts.com/icon </metadata>
<g><path d="M696,663.3H565.3v-73.2C696,560.2,794,443.6,794,304.1C794,142,662.1,10,500,10c-162.1,0-294,132-294,294.1c0,139.6,98,256.2,228.7,286v73.2H304c-36.1,0-65.3,29.2-65.3,65.3S267.9,794,304,794h130.7v130.7c0,36.1,29.2,65.3,65.3,65.3s65.3-29.2,65.3-65.3V794H696c36.1,0,65.3-29.2,65.3-65.3S732.1,663.3,696,663.3z M336.7,304.1c0-90.1,73.2-163.4,163.3-163.4S663.3,214,663.3,304.1c0,90-73.2,163.3-163.3,163.3S336.7,394.1,336.7,304.1z"/></g>
</svg>