<?xml version="1.0" encoding="utf-8"?>
<!-- Svg Vector Icons : http://www.onlinewebfonts.com/icon -->
<!DOCTYPE svg PUBLIC "-//W3C//DTD SVG 1.1//EN" "http://www.w3.org/Graphics/SVG/1.1/DTD/svg11.dtd">
<svg version="1.1" xmlns="http://www.w3.org/2000/svg" xmlns:xlink="http://www.w3.org/1999/xlink" x="0px" y="0px" viewBox="0 0 1000 1000" enable-background="new 0 0 1000 1000" xml:space="preserve">
<metadata> Svg Vector Icons : http://www.onlinewebfonts.com/icon </metadata>
<g><g transform="translate(0.000000,511.000000) scale(0.100000,-0.100000)"><path d="M4396.3,4975.6c-1956.2-243.3-3597-1656.4-4118.7-3552.3C-107.8,21.8,141.3-1476.9,954.9-2658.4c831.1-1204.8,2111.9-1958.1,3585.4-2108c288.1-31.1,893.4-15.6,1179.6,29.2c1002.4,151.8,1930.9,607.3,2666.6,1308C9784.1-2099.8,10268.7-32.7,9608.9,1783.4c-116.8,323.1-323.1,728-517.8,1021.9c-819.5,1232.1-2119.7,2026.3-3569.8,2180C5266.3,5012.5,4649.3,5006.7,4396.3,4975.6z M5410.4,4284.6c679.3-70.1,1362.5-313.4,1923.1-689c225.8-151.8,410.7-295.9,410.7-321.2c0-7.8-292-297.8-646.2-644.3c-356.2-346.5-994.6-969.3-1417-1382c-909-887.6-3750.8-3651.6-3867.6-3762.5l-81.7-77.9l-40.9,46.7c-120.7,140.1-373.7,548.9-488.6,786.4C791.4-908.6,678.5-5.4,865.4,930.8c290,1454,1391.7,2693.9,2806.8,3159.1C4223,4270.9,4849.8,4341,5410.4,4284.6z M8505.2,2427.7c854.5-1259.4,949.9-2911.9,247.2-4280.2c-652.1-1269.1-1925-2131.4-3351.8-2269.6c-1078.3-105.1-2180,221.9-3032.6,901.2c-81.7,64.2-149.9,122.6-151.8,128.5c0,5.8,163.5,173.2,365.9,369.8l364,360.1l5.8-539.2l3.9-541.1h856.4h856.4v-233.6V-3910h330.9h330.9v231.6c0,256.9-1.9,255,140.1,255c42.8,0,161.6,17.5,264.7,38.9c634.6,128.5,1111.4,432.1,1383.9,879.8c183,299.7,253,560.6,268.6,984.9c11.7,329-7.8,504.1-85.7,749.4C7133-229.3,6728.1,284.6,6298,502.6l-93.4,46.7L5591.4-50.2c-338.7-329-687.1-667.6-778.6-751.3l-163.5-153.8v-691v-692.9l-179.1,13.6c-97.3,5.8-467.1,11.7-821.4,11.7h-644.3l350.4,346.5c317.3,313.4,1237.9,1210.7,3338.2,3252.5c401,391.2,912.9,889.5,1134.8,1109.5l406.8,401l56.4-68.1C8322.3,2690.4,8417.6,2556.1,8505.2,2427.7z M5671.2-457c412.6-107.1,646.2-379.6,683.2-792.2c48.7-568.4-303.6-981-872-1020l-151.8-11.7v940.1v940.1l116.8-13.6C5509.6-421.9,5612.8-439.5,5671.2-457z"/><path d="M4664.9,3852.5l-5.8-219.9l-175.2-3.9c-644.3-15.6-1181.5-255-1487.1-663.7c-274.5-364-391.2-772.7-391.2-1366.4c0-523.6,95.4-885.6,321.2-1226.3c165.4-249.1,515.8-529.4,800-640.4l99.3-37l747.4,726l747.4,726l9.7,689.1l9.7,687.1l687.1,5.8l685.2,3.9v545v545h-691h-691v223.8v223.8h-330.9h-329L4664.9,3852.5z M4649.3,1592.6V650.5l-111,9.7c-379.6,27.3-677.4,202.4-809.7,473c-163.5,332.8-128.5,782.5,83.7,1049.1c130.4,163.5,404.9,297.8,677.4,330.9c72,7.8,136.3,15.6,146,17.5C4643.5,2530.8,4649.3,2110.4,4649.3,1592.6z"/></g></g>
</svg>